<svg width="27.0405" height="25.7931" viewBox="0 0 32 16" fill="none" xmlns="http://www.w3.org/2000/svg">
<path d="M7.09084 5.81474C7.90093 5.81474 8.55765 5.36749 8.55765 4.81575C8.55765 4.26402 7.90093 3.81677 7.09084 3.81677C6.28075 3.81677 5.62402 4.26402 5.62402 4.81575C5.62402 5.36749 6.28075 5.81474 7.09084 5.81474Z" fill="#483221" stroke="#483221" stroke-width="1.38325" stroke-linecap="round" stroke-linejoin="round"/>
<path d="M1.34717 5.23726V1.84072C1.34717 1.50969 1.7412 1.24133 2.22726 1.24133H29.8034C30.2895 1.24133 30.6835 1.50969 30.6835 1.84072V5.23726M1.34717 5.23726V14.6277C1.34717 14.9588 1.7412 15.2271 2.22726 15.2271H29.8034C30.2895 15.2271 30.6835 14.9588 30.6835 14.6277V5.23726M1.34717 5.23726H30.6835" stroke="#483221" stroke-width="1.38325" stroke-linecap="round" stroke-linejoin="round"/>
</svg>
