<svg xmlns="http://www.w3.org/2000/svg" width="28" height="26" viewBox="0 0 28 26" fill="none">
  <g clip-path="url(#clip0_70_440)">
    <path d="M2.53505 6.06897C1.13549 6.06897 0 7.15208 0 8.48707C0 9.24777 0.374976 9.96312 1.01402 10.4216L12.5062 18.6431C13.1083 19.0713 13.9322 19.0713 14.5343 18.6431L26.0265 10.4216C26.6655 9.96312 27.0405 9.24777 27.0405 8.48707C27.0405 7.15208 25.905 6.06897 24.5055 6.06897H2.53505ZM0 11.7112V22.1897C0 23.968 1.51575 25.4138 3.38006 25.4138H23.6604C25.5248 25.4138 27.0405 23.968 27.0405 22.1897V11.7112L15.5483 19.9328C14.3441 20.7942 12.6964 20.7942 11.4922 19.9328L0 11.7112Z" fill="#483221"/>
  </g>
  <defs>
    <clipPath id="clip0_70_440">
      <rect width="27.0405" height="25.7931" fill="white"/>
    </clipPath>
  </defs>
</svg>