<svg width="87" height="72" viewBox="0 0 87 72" fill="none" xmlns="http://www.w3.org/2000/svg">
<path d="M60.5 46.75L44 30.25L27.5 46.75" stroke="#33363F" stroke-width="2"/>
<path d="M5.36713 68.208C4.86579 68.208 4.40979 68.0747 3.99913 67.808C3.59379 67.536 3.26846 67.136 3.02313 66.608C2.78313 66.08 2.66313 65.432 2.66313 64.664H3.18313C3.18313 65.112 3.27913 65.4987 3.47113 65.824C3.66846 66.1493 3.91913 66.4 4.22313 66.576C4.52713 66.7467 4.84446 66.832 5.17513 66.832C5.56979 66.832 5.92446 66.7227 6.23913 66.504C6.55913 66.2853 6.81246 65.9733 6.99913 65.568C7.19113 65.1573 7.28713 64.6747 7.28713 64.12C7.28713 63.5707 7.19379 63.0987 7.00713 62.704C6.82046 62.304 6.56713 61.9973 6.24713 61.784C5.92713 61.5653 5.56446 61.456 5.15913 61.456C4.81779 61.456 4.49513 61.5387 4.19113 61.704C3.89246 61.8693 3.64979 62.1147 3.46313 62.44C3.27646 62.76 3.18313 63.152 3.18313 63.616H2.66313C2.66313 62.864 2.78046 62.2267 3.01513 61.704C3.24979 61.1813 3.57513 60.784 3.99113 60.512C4.41246 60.2347 4.90579 60.096 5.47113 60.096C6.08446 60.096 6.64446 60.2613 7.15113 60.592C7.66313 60.9173 8.07113 61.3813 8.37513 61.984C8.68446 62.5867 8.83913 63.2987 8.83913 64.12C8.83913 64.9467 8.68179 65.6667 8.36713 66.28C8.05246 66.888 7.63113 67.3627 7.10313 67.704C6.58046 68.04 6.00179 68.208 5.36713 68.208ZM1.66313 68V57.064H3.18313V66.152L2.69513 68H1.66313ZM16.4321 68L16.2401 66.232V63.024C16.2401 62.3947 16.1095 61.9387 15.8481 61.656C15.5868 61.368 15.1735 61.224 14.6081 61.224C14.2881 61.224 14.0028 61.272 13.7521 61.368C13.5068 61.4587 13.3121 61.5973 13.1681 61.784C13.0295 61.9707 12.9601 62.2053 12.9601 62.488H11.2801C11.2801 61.9227 11.4188 61.464 11.6961 61.112C11.9735 60.76 12.3601 60.504 12.8561 60.344C13.3575 60.1787 13.9415 60.096 14.6081 60.096C15.2321 60.096 15.7815 60.2 16.2561 60.408C16.7308 60.6107 17.0988 60.9307 17.3601 61.368C17.6268 61.8053 17.7601 62.3707 17.7601 63.064V68H16.4321ZM13.8561 68.208C13.2108 68.208 12.6748 68.096 12.2481 67.872C11.8215 67.6427 11.5015 67.344 11.2881 66.976C11.0801 66.608 10.9761 66.216 10.9761 65.8C10.9761 65.2933 11.1041 64.8773 11.3601 64.552C11.6215 64.2213 11.9815 63.976 12.4401 63.816C12.8988 63.656 13.4268 63.576 14.0241 63.576C14.4348 63.576 14.8348 63.6133 15.2241 63.688C15.6135 63.7627 15.9975 63.8613 16.3761 63.984V64.904C16.0668 64.792 15.7228 64.704 15.3441 64.64C14.9708 64.5707 14.6215 64.536 14.2961 64.536C13.8108 64.536 13.4055 64.632 13.0801 64.824C12.7548 65.016 12.5921 65.3413 12.5921 65.8C12.5921 66.136 12.7201 66.4267 12.9761 66.672C13.2321 66.912 13.6375 67.032 14.1921 67.032C14.5975 67.032 14.9548 66.9413 15.2641 66.76C15.5735 66.5733 15.8135 66.3413 15.9841 66.064C16.1548 65.7867 16.2401 65.5093 16.2401 65.232H16.6081C16.6081 65.7653 16.4988 66.2587 16.2801 66.712C16.0668 67.16 15.7548 67.5227 15.3441 67.8C14.9335 68.072 14.4375 68.208 13.8561 68.208ZM23.775 68.208C23.1457 68.208 22.559 68.04 22.015 67.704C21.471 67.368 21.0337 66.896 20.703 66.288C20.3723 65.68 20.207 64.9653 20.207 64.144C20.207 63.28 20.3723 62.5493 20.703 61.952C21.0337 61.3493 21.471 60.8907 22.015 60.576C22.559 60.256 23.1457 60.096 23.775 60.096C24.239 60.096 24.6523 60.1707 25.015 60.32C25.3777 60.464 25.6897 60.6613 25.951 60.912C26.2123 61.1573 26.423 61.4347 26.583 61.744C26.7483 62.0533 26.863 62.3733 26.927 62.704L25.383 62.784C25.271 62.384 25.0737 62.064 24.791 61.824C24.5137 61.5787 24.1697 61.456 23.759 61.456C23.4123 61.456 23.0843 61.5547 22.775 61.752C22.471 61.944 22.223 62.24 22.031 62.64C21.8443 63.0347 21.751 63.536 21.751 64.144C21.751 64.7093 21.839 65.192 22.015 65.592C22.191 65.992 22.431 66.2987 22.735 66.512C23.039 66.7253 23.3803 66.832 23.759 66.832C24.303 66.832 24.7083 66.7013 24.975 66.44C25.247 66.1733 25.383 65.808 25.383 65.344H26.927C26.927 65.8827 26.8017 66.368 26.551 66.8C26.3003 67.232 25.9377 67.576 25.463 67.832C24.9937 68.0827 24.431 68.208 23.775 68.208ZM29.6388 68V57.064H31.1588V68H29.6388ZM30.9428 63.432L34.5988 60.304H36.6868L30.9428 65.024V63.432ZM35.0148 68L31.4468 63.12L32.9348 62.808L36.8708 68H35.0148ZM45.8601 68.208C45.4228 68.208 45.0281 68.1253 44.6761 67.96C44.3241 67.7947 44.0441 67.5467 43.8361 67.216C43.6335 66.88 43.5321 66.4587 43.5321 65.952V58.208H45.0441V65.904C45.0441 66.6293 45.3828 66.992 46.0601 66.992C46.2681 66.992 46.4708 66.9707 46.6681 66.928C46.8655 66.88 47.0895 66.8107 47.3401 66.72L47.5561 67.8C47.2735 67.9173 46.9935 68.0133 46.7161 68.088C46.4441 68.168 46.1588 68.208 45.8601 68.208ZM42.3561 61.336V60.304H47.3241V61.336H42.3561ZM52.7448 68.208C52.0461 68.208 51.4194 68.056 50.8647 67.752C50.3154 67.448 49.8807 66.9947 49.5607 66.392C49.2407 65.7893 49.0807 65.0453 49.0807 64.16C49.0807 63.2587 49.2407 62.5093 49.5607 61.912C49.8807 61.3093 50.3154 60.856 50.8647 60.552C51.4194 60.248 52.0461 60.096 52.7448 60.096C53.4328 60.096 54.0514 60.248 54.6007 60.552C55.1501 60.856 55.5821 61.3093 55.8967 61.912C56.2167 62.5093 56.3767 63.2587 56.3767 64.16C56.3767 65.0453 56.2167 65.7893 55.8967 66.392C55.5821 66.9947 55.1501 67.448 54.6007 67.752C54.0514 68.056 53.4328 68.208 52.7448 68.208ZM52.6967 66.88C53.1394 66.88 53.5207 66.7733 53.8407 66.56C54.1661 66.3467 54.4141 66.0373 54.5848 65.632C54.7608 65.2213 54.8488 64.7307 54.8488 64.16C54.8488 63.2853 54.6701 62.608 54.3127 62.128C53.9607 61.648 53.4514 61.408 52.7847 61.408C52.3367 61.408 51.9501 61.5173 51.6247 61.736C51.3047 61.9493 51.0567 62.2613 50.8807 62.672C50.7101 63.0773 50.6247 63.5733 50.6247 64.16C50.6247 65.0187 50.8034 65.688 51.1607 66.168C51.5181 66.6427 52.0301 66.88 52.6967 66.88ZM65.742 68.208C65.3047 68.208 64.91 68.1253 64.558 67.96C64.206 67.7947 63.926 67.5467 63.718 67.216C63.5153 66.88 63.414 66.4587 63.414 65.952V58.208H64.926V65.904C64.926 66.6293 65.2647 66.992 65.942 66.992C66.15 66.992 66.3527 66.9707 66.55 66.928C66.7473 66.88 66.9713 66.8107 67.222 66.72L67.438 67.8C67.1553 67.9173 66.8753 68.0133 66.598 68.088C66.326 68.168 66.0407 68.208 65.742 68.208ZM62.238 61.336V60.304H67.206V61.336H62.238ZM72.6266 68.208C71.928 68.208 71.3013 68.056 70.7466 67.752C70.1973 67.448 69.7626 66.9947 69.4426 66.392C69.1226 65.7893 68.9626 65.0453 68.9626 64.16C68.9626 63.2587 69.1226 62.5093 69.4426 61.912C69.7626 61.3093 70.1973 60.856 70.7466 60.552C71.3013 60.248 71.928 60.096 72.6266 60.096C73.3146 60.096 73.9333 60.248 74.4826 60.552C75.032 60.856 75.464 61.3093 75.7786 61.912C76.0986 62.5093 76.2586 63.2587 76.2586 64.16C76.2586 65.0453 76.0986 65.7893 75.7786 66.392C75.464 66.9947 75.032 67.448 74.4826 67.752C73.9333 68.056 73.3146 68.208 72.6266 68.208ZM72.5786 66.88C73.0213 66.88 73.4026 66.7733 73.7226 66.56C74.048 66.3467 74.296 66.0373 74.4666 65.632C74.6426 65.2213 74.7306 64.7307 74.7306 64.16C74.7306 63.2853 74.552 62.608 74.1946 62.128C73.8426 61.648 73.3333 61.408 72.6666 61.408C72.2186 61.408 71.832 61.5173 71.5066 61.736C71.1866 61.9493 70.9386 62.2613 70.7626 62.672C70.592 63.0773 70.5066 63.5733 70.5066 64.16C70.5066 65.0187 70.6853 65.688 71.0426 66.168C71.4 66.6427 71.912 66.88 72.5786 66.88ZM82.5736 68.208C82.0136 68.208 81.5283 68.0827 81.1176 67.832C80.707 67.576 80.3923 67.2027 80.1736 66.712C79.9603 66.216 79.8536 65.6027 79.8536 64.872H80.4456C80.4456 65.2933 80.5363 65.6507 80.7176 65.944C80.899 66.232 81.1363 66.4533 81.4296 66.608C81.7283 66.7573 82.0456 66.832 82.3816 66.832C82.7336 66.832 83.075 66.7333 83.4056 66.536C83.7416 66.3333 84.0163 66.032 84.2296 65.632C84.443 65.232 84.5496 64.736 84.5496 64.144C84.5496 63.5787 84.4536 63.096 84.2616 62.696C84.075 62.296 83.819 61.9893 83.4936 61.776C83.1683 61.5627 82.803 61.456 82.3976 61.456C82.0563 61.456 81.7363 61.5387 81.4376 61.704C81.139 61.864 80.899 62.1013 80.7176 62.416C80.5363 62.7253 80.4456 63.104 80.4456 63.552H79.8536C79.8536 62.7787 79.9763 62.136 80.2216 61.624C80.4723 61.112 80.8083 60.7307 81.2296 60.48C81.651 60.224 82.1176 60.096 82.6296 60.096C83.2323 60.096 83.7976 60.2587 84.3256 60.584C84.8536 60.904 85.2803 61.3653 85.6056 61.968C85.9363 62.5707 86.1016 63.296 86.1016 64.144C86.1016 64.992 85.9363 65.72 85.6056 66.328C85.275 66.936 84.8403 67.4027 84.3016 67.728C83.7683 68.048 83.1923 68.208 82.5736 68.208ZM78.9256 71.776V60.304H80.1816L80.4456 62.152V71.776H78.9256Z" fill="black"/>
</svg>
