<svg xmlns="http://www.w3.org/2000/svg" width="28" height="27" viewBox="0 0 28 27" fill="none">
  <g clip-path="url(#clip0_84_933)">
    <path d="M9.8185 1.82978C9.8185 1.15976 9.17267 0.620728 8.3699 0.620728C7.56714 0.620728 6.9213 1.15976 6.9213 1.82978V3.84487H4.50697C2.37633 3.84487 0.644043 5.29069 0.644043 7.069V7.87504V10.2931V23.1897C0.644043 24.968 2.37633 26.4138 4.50697 26.4138H23.8216C25.9523 26.4138 27.6846 24.968 27.6846 23.1897V10.2931V7.87504V7.069C27.6846 5.29069 25.9523 3.84487 23.8216 3.84487H21.4073V1.82978C21.4073 1.15976 20.7615 0.620728 19.9587 0.620728C19.1559 0.620728 18.5101 1.15976 18.5101 1.82978V3.84487H9.8185V1.82978ZM3.54124 10.2931H24.7874V23.1897C24.7874 23.633 24.3528 23.9957 23.8216 23.9957H4.50697C3.97582 23.9957 3.54124 23.633 3.54124 23.1897V10.2931Z" fill="#483221"/>
  </g>
  <defs>
    <clipPath id="clip0_84_933">
      <rect width="27.0405" height="25.7931" fill="white" transform="translate(0.644043 0.620728)"/>
    </clipPath>
  </defs>
</svg>
