<svg width="28" height="20" viewBox="0 0 28 20" fill="none" xmlns="http://www.w3.org/2000/svg">
<path d="M24 2.15625C24.4125 2.15625 24.75 2.47969 24.75 2.875V4.3125H2.25V2.875C2.25 2.47969 2.5875 2.15625 3 2.15625H24ZM24.75 8.625V17.25C24.75 17.6453 24.4125 17.9688 24 17.9688H3C2.5875 17.9688 2.25 17.6453 2.25 17.25V8.625H24.75ZM3 0C1.34531 0 0 1.28926 0 2.875V17.25C0 18.8357 1.34531 20.125 3 20.125H24C25.6547 20.125 27 18.8357 27 17.25V2.875C27 1.28926 25.6547 0 24 0H3ZM5.625 13.6562C5.00156 13.6562 4.5 14.1369 4.5 14.7344C4.5 15.3318 5.00156 15.8125 5.625 15.8125H7.875C8.49844 15.8125 9 15.3318 9 14.7344C9 14.1369 8.49844 13.6562 7.875 13.6562H5.625ZM11.625 13.6562C11.0016 13.6562 10.5 14.1369 10.5 14.7344C10.5 15.3318 11.0016 15.8125 11.625 15.8125H16.875C17.4984 15.8125 18 15.3318 18 14.7344C18 14.1369 17.4984 13.6562 16.875 13.6562H11.625Z" fill="#483221"/>
</svg>
