<svg width="28" height="20" viewBox="0 0 28 20" fill="none" xmlns="http://www.w3.org/2000/svg">
<path d="M2.53505 0C1.13549 0 0 1.08311 0 2.4181C0 3.1788 0.374976 3.89415 1.01402 4.35259L12.5062 12.5741C13.1083 13.0023 13.9322 13.0023 14.5343 12.5741L26.0265 4.35259C26.6655 3.89415 27.0405 3.1788 27.0405 2.4181C27.0405 1.08311 25.905 0 24.5055 0H2.53505ZM0 5.64224V16.1207C0 17.899 1.51575 19.3448 3.38006 19.3448H23.6604C25.5248 19.3448 27.0405 17.899 27.0405 16.1207V5.64224L15.5483 13.8638C14.3441 14.7252 12.6964 14.7252 11.4922 13.8638L0 5.64224Z" fill="#483221"/>
</svg>
