<svg width="28" height="27" viewBox="0 0 28 27" fill="none" xmlns="http://www.w3.org/2000/svg">
<g clip-path="url(#clip0_84_920)">
<path d="M27.4452 13.4921C27.4452 14.3989 26.741 15.1092 25.9429 15.1092H24.4407L24.4735 23.1796C24.4735 23.3156 24.4642 23.4517 24.4501 23.5877V24.3987C24.4501 25.5121 23.6097 26.4138 22.5723 26.4138H21.8211C21.7695 26.4138 21.7179 26.4138 21.6662 26.4088C21.6005 26.4138 21.5348 26.4138 21.469 26.4138H19.9433H18.8166C17.7791 26.4138 16.9388 25.5121 16.9388 24.3987V23.1897V19.9656C16.9388 19.0739 16.2675 18.3535 15.4366 18.3535H12.4321C11.6011 18.3535 10.9298 19.0739 10.9298 19.9656V23.1897V24.3987C10.9298 25.5121 10.0895 26.4138 9.052 26.4138H7.92531H6.42776C6.35734 26.4138 6.28692 26.4088 6.2165 26.4038C6.16017 26.4088 6.10384 26.4138 6.0475 26.4138H5.29638C4.25888 26.4138 3.41856 25.5121 3.41856 24.3987V18.7565C3.41856 18.7112 3.41856 18.6608 3.42326 18.6154V15.1092H1.91631C1.0713 15.1092 0.414062 14.4039 0.414062 13.4921C0.414062 13.0387 0.554898 12.6357 0.883516 12.283L12.9203 1.02374C13.2489 0.671105 13.6245 0.620728 13.9531 0.620728C14.2817 0.620728 14.6573 0.721482 14.9389 0.973368L26.9288 12.283C27.3043 12.6357 27.4921 13.0387 27.4452 13.4921Z" fill="#483221"/>
</g>
<defs>
<clipPath id="clip0_84_920">
<rect width="27.0405" height="25.7931" fill="white" transform="translate(0.414062 0.620728)"/>
</clipPath>
</defs>
</svg>
