<svg width="34" height="29" viewBox="0 0 34 29" fill="none" xmlns="http://www.w3.org/2000/svg">
<path id="Vector" d="M30.2567 7.56048C30.2781 7.86387 30.2781 8.16732 30.2781 8.4707C30.2781 17.7243 23.3238 28.3866 10.6134 28.3866C6.69755 28.3866 3.05992 27.238 0 25.2443C0.556367 25.3093 1.09126 25.331 1.66904 25.331C4.90008 25.331 7.87444 24.2258 10.2496 22.3404C7.2111 22.2753 4.66474 20.2599 3.78741 17.486C4.2154 17.5509 4.64333 17.5943 5.09273 17.5943C5.71325 17.5943 6.33384 17.5076 6.91155 17.356C3.74466 16.7058 1.36941 13.8885 1.36941 10.4861V10.3995C2.28949 10.9196 3.35948 11.2446 4.49349 11.2879C2.63186 10.031 1.41223 7.88555 1.41223 5.45834C1.41223 4.15808 1.75453 2.96616 2.35371 1.92593C5.756 6.17351 10.8701 8.94739 16.6047 9.25084C16.4978 8.73072 16.4335 8.189 16.4335 7.6472C16.4335 3.78966 19.5149 0.647354 23.3451 0.647354C25.3351 0.647354 27.1325 1.49253 28.395 2.85783C29.957 2.55444 31.4549 1.96929 32.7816 1.16747C32.268 2.79286 31.1767 4.15815 29.7431 5.02494C31.134 4.87332 32.482 4.48315 33.7231 3.94142C32.7817 5.32833 31.6048 6.56354 30.2567 7.56048Z" fill="#483221"/>
</svg>
